<?xml version="1.0" encoding="UTF-8"?>
<svg id="_レイヤー_1" data-name="レイヤー 1" xmlns="http://www.w3.org/2000/svg" viewBox="0 0 197.62 196.82">
  <defs>
    <style>
      .cls-1 {
        fill: #fb5c30;
      }

      .cls-2 {
        fill: #fdfdfd;
      }
    </style>
  </defs>
  <path class="cls-1" d="M196.86,85.83c6.49,52.66-28.86,99.5-79.29,109.2-50.78,9.76-100.67-21.25-114.16-71.57C-12.6,63.74,29.65,4.92,91.45.28c51.88-3.89,98.9,32.74,105.41,85.54ZM176.72,133.3c3.48-4.53.69-10.56-3.24-12.63-4.47-2.36-10.01-1.59-12.76,3.07-4.18,7.09-8.51,13.83-14.2,19.81-6.3,6.62-15.35,12.72-19.71,7.79-.97-1.09-1.44-2.82-1.1-4.66.6-3.59,2.68-6.28,5.1-8.82,7-7.33,11.68-15.71,14.33-25.8,15.65-4.59,28.25-14.52,36.09-28.74,2.32-4.2.37-9.02-3.52-10.93-3.56-1.74-8.91-.9-10.93,3.4-3.7,7.88-8.96,14.86-17.88,18.2l-.08-22.29c-.02-5.24-5.57-8.45-9.82-7.89-5.58.74-8.43,4.96-8.03,10.5,1.02,13.87.06,36-7.35,45.29-3.12,3.91-7.92,4.21-11.73,1.07l-10.95-9.03c-2.68-3.52-2.49-8.56-2.16-12.88l1.72-22.44c18.9-11.5,30.17-25.23,33.08-47.97.7-5.42-3.8-9.74-8.64-9.75-4.52-.01-8.44,3.6-8.63,8.75-.47,12.37-6.01,24.16-16.84,30.1-1.76-12.58-5.1-24.45-10.93-35.32-2.27-4.24-7.77-5.47-11.87-4.02-3.39,1.2-7.52,5.63-5.7,9.63l5.94,13.05c6.58,17.58,7.46,36.61,3.7,55.83-15.21-13.54-23.6-30.9-27.95-49.65-1.13-4.86-5.32-7.86-9.93-7.67-3.33.14-8.9,3.55-8.02,8.2,3.34,17.76,11.89,33.61,22.17,48.54-12.3,1.63-21.81-4.77-28.43-13.85-2.99-4.1-9.68-3.94-12.43-.77-3.44,3.96-2.17,8.59,1,12.24,11.88,13.69,28.96,20.72,47.34,18.25,4.47-.6,6.74.61,10.38,3.06l20.26,13.6c6.84,4.59,11.73,11.35,12.67,19.66.74,6.55-3.14,11.21-9.71,11.98-8.44-.47-17.05-1.39-25.16-4.2-5.73-5.95-7.8-13.7-8.21-21.77.07-5.09-3.28-8.5-7.82-8.3-4.26.19-7.51,3.68-6.92,8.41l1.57,12.52c-8.46-4.92-13.96-11.82-19.45-19.23-2.75-3.71-7.12-5.13-11.25-2.36-2.46,1.65-4.85,6.58-2.42,10.16,9.46,13.88,21.93,25.3,37.41,32.42,36.12,16.62,80.54,13.82,107.79-17.29l13.22-17.25Z"/>
  <path class="cls-2" d="M176.72,133.3l-13.22,17.25c-27.25,31.11-71.68,33.92-107.79,17.29-15.48-7.12-27.96-18.54-37.41-32.42-2.43-3.57-.05-8.5,2.42-10.16,4.13-2.77,8.5-1.35,11.25,2.36,5.48,7.41,10.99,14.31,19.45,19.23l-1.57-12.52c-.59-4.73,2.66-8.22,6.92-8.41,4.53-.2,7.89,3.21,7.82,8.3.41,8.08,2.48,15.82,8.21,21.77,8.11,2.81,16.72,3.73,25.16,4.2,6.56-.77,10.44-5.43,9.71-11.98-.94-8.31-5.83-15.07-12.67-19.66l-20.26-13.6c-3.64-2.44-5.91-3.66-10.38-3.06-18.39,2.47-35.46-4.56-47.34-18.25-3.17-3.65-4.43-8.28-1-12.24,2.75-3.17,9.44-3.33,12.43.77,6.63,9.08,16.14,15.47,28.43,13.85-10.28-14.93-18.83-30.78-22.17-48.54-.88-4.65,4.7-8.07,8.02-8.2,4.61-.19,8.8,2.81,9.93,7.67,4.35,18.76,12.73,36.12,27.95,49.65,3.76-19.22,2.87-38.25-3.7-55.83l-5.94-13.05c-1.82-4,2.31-8.43,5.7-9.63,4.1-1.45,9.6-.22,11.87,4.02,5.83,10.87,9.17,22.73,10.93,35.32,10.83-5.94,16.37-17.73,16.84-30.1.2-5.15,4.11-8.76,8.63-8.75,4.84.01,9.33,4.33,8.64,9.75-2.91,22.74-14.19,36.47-33.08,47.97l-1.72,22.44c-.33,4.32-.52,9.36,2.16,12.88l10.95,9.03c3.81,3.15,8.62,2.84,11.73-1.07,7.41-9.29,8.37-31.42,7.35-45.29-.41-5.55,2.44-9.77,8.03-10.5,4.25-.56,9.8,2.65,9.82,7.89l.08,22.29c8.93-3.34,14.18-10.32,17.88-18.2,2.02-4.3,7.37-5.14,10.93-3.4,3.89,1.91,5.84,6.72,3.52,10.93-7.84,14.22-20.44,24.15-36.09,28.74-2.66,10.1-7.33,18.47-14.33,25.8-2.42,2.54-4.5,5.23-5.1,8.82-.34,1.84.13,3.57,1.1,4.66,4.36,4.93,13.41-1.17,19.71-7.79,5.69-5.98,10.03-12.72,14.2-19.81,2.75-4.67,8.29-5.43,12.76-3.07,3.93,2.07,6.72,8.1,3.24,12.63Z"/>
</svg>