<?xml version="1.0" encoding="UTF-8"?>
<svg id="_レイヤー_1" data-name="レイヤー 1" xmlns="http://www.w3.org/2000/svg" viewBox="0 0 885.31 281.85">
  <defs>
    <style>
      .cls-1 {
        fill: #033b67;
      }

      .cls-2 {
        fill: #919aa2;
      }

      .cls-3 {
        fill: #fb5c30;
      }

      .cls-4 {
        fill: #fdfdfd;
      }
    </style>
  </defs>
  <g>
    <path class="cls-2" d="M347.43,271.11l-.67-25.61-9.35,19.58c-1.2.57-4.52.88-5.09-.23l-10.25-19.96-.25,26.34c-1.6.24-2.71.16-4.29-.11l-.02-34.38,6.04-.06,11.36,24.31,11.07-24.16c1.94-.38,3.51-.46,5.74-.19l.12,34.52c-1.59.4-2.8.37-4.41-.07Z"/>
    <path class="cls-2" d="M509.22,271.07l-.4-17.67c-.07-2.92-3.17-4.11-5.62-3.54-1.72.4-4.85,1.8-4.95,4.57l-.59,16.83c-1.69.26-3.21.07-4.34-.08l-.03-24.25c2.05-.58,3.83-.04,5.49,1.56,4.64-3.46,10.35-2.94,14.45,1.11,2.7-2.69,5.62-3.82,8.66-3.63s6.86,2.25,6.95,6.01l.48,19.25c-1.42.37-2.98.4-4.56-.09l-.73-19.07c-.09-2.29-3.71-2.83-5.68-2.07-1.55.6-4.31,1.97-4.39,4.64l-.51,16.54c-1.23.21-2.39.32-4.24-.11Z"/>
    <path class="cls-2" d="M754.07,271.41c-1.9.13-2.97.1-4.38-.19l-.32-17.44c-.05-2.83-2.62-4.38-5.19-4.07-2.02.24-5.4,1.91-5.48,4.83l-.49,16.7c-1.28.3-2.78.37-4.25-.09l.11-23.93c1.1-1.2,4.08-.39,5.41,1.13,4.7-3.5,10.04-3.15,13.93,1.3,2.72-2.51,5.47-3.87,8.5-3.69,2.69.16,6.87,1.47,7,4.86l.76,20.36c-1.89.41-3.19.3-4.48.08l-.33-17.87c-.05-2.89-3.2-4.14-5.64-3.55-1.64.4-4.73,1.88-4.78,4.57l-.35,17Z"/>
    <path class="cls-2" d="M440.2,280.22c-.64-.31-.31-3.08-.06-3.72,3.43,1.29,7.46,2.35,11.41.96,3.37-1.19,5.51-4.49,4.07-8.79-3.77,3.31-8.53,3.76-12.67,1.8-7.24-3.44-7.51-17.57-1.1-22.39,3.63-2.73,7.59-2.43,12.14-.96l6.49-.36.19,23.58c.04,5.31-2.64,9.68-8,10.96-3.74.9-8.67.77-12.47-1.09ZM456.37,258.64c.09-3.71-1.12-6.48-3.57-8.07-2.23-1.45-6.09-1.75-8.24.7-3.25,3.7-3.51,9.86-.89,13.99,1.94,3.06,5.98,3.03,8.3,1.97,3.34-1.53,4.31-4.53,4.41-8.59Z"/>
    <path class="cls-2" d="M121.62,257.38l-.47,13.92-4.89.02v-34.52s15.69.41,15.69.41c4.6.12,6.89,4.9,7.15,8.78.28,4.22-1.41,8.16-5.57,10.13-3.45,1.63-6.77,1.91-11.91,1.26ZM130.68,252.9c3.23-1.29,3.93-4.32,3.59-6.8-.77-5.65-6.15-6.08-13.23-5.68l.15,13.15c3.42.27,6.45.54,9.49-.67Z"/>
    <path class="cls-2" d="M208.37,267.51c-3.78,5.67-11.03,6.1-15.71,1.45-1.14,4.75-.54,8.44-.54,12.74l-4.62-.06.17-34.93,6.73.76c4.84-1.89,10.47-2.12,13.79,2.37,3.64,4.94,3.8,12.26.18,17.67ZM206.41,259.64c.16-3.93-.93-7.18-3.68-8.95-2.46-1.58-5.58-1.24-7.81.39-2.63,1.92-2.86,4.99-3.01,8.21-.24,5.05,2.43,9.1,7.26,9.18,4.34.06,7.03-3.68,7.24-8.82Z"/>
    <path class="cls-2" d="M636.51,270.77c-5.28,2.36-11.45,1.63-16.34-1.08-.57-.65-.2-2.84.37-3.79,7.92,3.26,15.55,2.81,16.52-2.14.39-1.99-.36-4.45-2.42-5.49l-9.93-5c-3.27-1.64-4.89-4.46-4.97-7.5-.08-3.27.92-6.44,4.34-8.04,5.03-2.35,11.08-2.43,15.98-.05.6,1.02.35,3.48-.13,4.2-7.14-2.91-14.01-2.46-15.06,2.27-.5,2.24.64,4.8,3.23,5.9l8.33,3.52c3.71,1.57,5.87,4.63,5.79,8.26s-1.58,7.08-5.7,8.93Z"/>
    <path class="cls-2" d="M545.97,268.14c3.12.28,5.67-.4,8.87-1.98.56,1.24.75,3.1.17,4.08-.77,1.29-11.01,3.62-16.6-1.03-6.23-5.17-5.24-18.51,2.58-22.01,3.92-1.76,8.86-1.77,12.25,1.52,3.09,3,3.61,7.26,3.24,11.97l-17.21-.47c-.17,4.31,2.55,7.55,6.7,7.92ZM552.16,256.42c-.13-5.42-3.54-7.1-6.75-6.74s-6.25,2.7-6.1,7.06l12.86-.31Z"/>
    <path class="cls-2" d="M719.24,268.26c2.9.02,5.16-.68,7.73-1.66.46,1.03.67,2.03.44,3.68-4.74,1.83-10.98,2.93-15.59-.24-5.97-4.1-6.92-12.89-3.28-18.73,3.07-4.94,8.55-6.43,13.53-4.75s7.21,7.46,6.86,13.62l-17.32.13c-.11,4.48,2.69,7.91,7.63,7.94ZM724.21,256.69c.25-4.56-2.91-7.4-6.79-7.1-2.95.22-5.61,3-6.04,7.13l12.83-.03Z"/>
    <path class="cls-2" d="M411.33,263.99c.47-6.83,7.68-8.05,16.15-7.57.54-2.25-.17-4.99-2.01-5.92-3.55-1.8-6.98-.34-10.56,1.29-.96-.05-1.06-2.32-.86-3.12.59-2.43,15.75-5.63,17.59,3.36l.41,19.04c-1.24,1.41-4.09-.4-5.13-1.48-3.23,2.08-7.45,3.52-11.26,1.65-2.91-1.43-4.53-4.35-4.34-7.25ZM427.44,260.01c-3.38-.41-5.3-.29-7.8.06-2.64.37-3.82,2.58-3.63,4.59.22,2.34,1.86,3.82,4.65,3.71,2.28-.09,4.3-.77,5.46-2.15,1.28-1.52,1.94-3.57,1.32-6.21Z"/>
    <path class="cls-2" d="M475.05,267.53c4.74,1.55,8.26.2,11.79-1.09.18,1.47.44,3.03,0,3.7-.68,1.03-10.1,3.76-16.01-.36-3.35-2.33-4.91-6.64-4.75-11.44.16-4.88,2.52-9.39,6.24-11.01,4.46-1.94,10.17-1.62,13.22,1.93,2.74,3.19,3.03,7.54,2.53,11.03l-16.43.32c-1.45,1.86.81,6.05,3.43,6.9ZM483.85,256.49c-.29-5.53-3.52-7.22-6.67-7.04-3.51.2-6.16,3.06-6.12,7.22l12.79-.17Z"/>
    <path class="cls-2" d="M365.37,256.72l8.11-.34c1.32-1.7-.3-5.28-1.96-5.93-3.76-1.48-7.29-.46-10.9,1.5l-.71-3.8c3.35-1.43,7.22-2.5,10.99-1.95,4.39.64,7.48,3.64,7.45,8.22l-.09,16.62c-1.2,1-4,.35-5.07-1.52-3.7,2.57-8.64,3.45-12.73.96-2.9-1.77-3.1-5.13-2.44-8.38.54-2.69,3.16-5.2,7.35-5.38ZM373.25,260.53c-2.22-1.6-5-.47-6.5-.47-3.44,0-4.79,2.03-4.61,4.76.15,2.21,1.82,3.45,4.54,3.47,2.52.02,4.18-.73,5.59-1.96,1.31-1.14,2.7-4.56.97-5.8Z"/>
    <path class="cls-2" d="M223.4,267.25c4.27,1.9,8.29.73,11.91-.9.69,1.31.71,3.22.09,4.01-.68.88-9.73,3.38-15.68-.53-7.36-4.84-6.03-18.59.93-22.21,4.2-2.18,10.02-2.02,13.22,1.32s3.33,7.55,3.1,11.82l-17.31-.43c-.12,2.68.94,5.67,3.74,6.92ZM232.51,256.78c.44-5.26-3.13-7.83-7.08-7.15-3.48.6-6.1,3.64-5.73,7.3l12.81-.15Z"/>
    <path class="cls-2" d="M299.62,246.97l-13.61,34.59c-1.73.3-3.13.27-4.7.07l4.19-10.38-9.68-24.37c1.86-.18,3.52-.2,4.9.18l7.18,17.94,7.3-17.96c.82-.31,2.31-.44,4.42-.06Z"/>
    <path class="cls-2" d="M667.31,247.16l-13.57,34.27c-1.46.41-2.96.39-4.52.17l3.86-10.23-9.64-24.38,4.41-.29,7.42,18.23,7.25-17.75c.86-.54,2.75-.71,4.78-.02Z"/>
    <path class="cls-2" d="M566.61,254.98l-.33,16.28c-1.4.29-2.87.27-4.32,0l.09-24.38c1.88-.82,3.99.67,5.44,1.18,2.89-1.16,5.91-2.64,9.08-1.97,2.95.63,6.35,2.79,6.39,6.69l.19,18.64-4.42-.2-.57-18.22c-.09-2.72-3.7-3.66-5.93-3.26-1.9.34-5.55,1.88-5.62,5.24Z"/>
    <path class="cls-2" d="M182.07,257.97c.41,7.53-3.7,12.87-10.27,13.82-6.94.99-13.1-3.1-13.86-10.35-.85-8.05,2.44-14.56,10.59-15.39,6.63-.67,13.09,3.79,13.54,11.93ZM177.59,259.73c.34-5.61-2.65-10.03-7.42-10.11s-7.48,3.68-7.75,8.69,1.47,9.65,6.7,10.07c4.48.36,8.12-2.95,8.47-8.66Z"/>
    <path class="cls-2" d="M389.77,255.04l-.35,16.22-4.27.1.09-24.44c1.74-.84,3.84.58,5.33,1.22,2.83-1.18,5.84-2.74,9.02-2.05,2.52.54,6.38,2.16,6.45,5.72l.38,19.43c-1.59.29-2.99.26-4.32.03l-.37-17.83c-.06-3.1-3.91-4.22-6.49-3.62-1.83.43-5.4,1.92-5.47,5.22Z"/>
    <path class="cls-2" d="M681.44,271.41c-4.05,1.11-8.49.5-12.01-.84-.46-.65-.21-2.32.26-3.81,5.63,1.65,11.29,2.51,12.31-.96.46-1.54-.35-3.23-2.08-3.93l-6.28-2.56c-3-1.22-4.59-3.6-4.49-6.41.11-3.12,2.17-5.57,5.58-6.4,3.62-.88,7.3-.42,10.47.87,0,1.7.17,2.72-.59,3.75-2.89-1.46-8.38-2.52-10.16.15-3.93,5.9,10.8,4.34,12.06,11.71.62,3.65-.76,7.25-5.06,8.43Z"/>
    <path class="cls-2" d="M273.71,267.8c.47,1.53.5,2.9.21,3.37-.85,1.36-10.74,1.29-10.86-4.12l-.36-16.39-4.22-.54c-.9-.12-.75-3.18.17-3.22,1.38-.06,2.79.09,3.46-.36,1.83-1.2-.14-5.71,1.75-6.4.68-.25,2.14-.4,3.04-.19.99.23-.43,4.25.56,5.91.48.8,1.71,1.07,3.24,1.01l3.17-.11c.74-.03.39,2.4.02,3.26l-6.46.51c-.04,5.13-.92,10.52.23,15.77.48,2.2,4.86,2.08,6.05,1.51Z"/>
    <path class="cls-2" d="M697.68,265.82c.03,2.65,4.14,3.06,6.1,1.95.65.84.45,2.14.36,2.86-.27,2.36-10.67,1.54-10.83-2.85l-.63-17.1-4.08-.63c-.85-.13-.73-3.08.15-3.18l3.35-.36c1.59-.17.14-6.04,1.57-6.45.71-.2,2.43-.34,3.2-.14.91.24-.35,4.22.72,5.85,1.21,1.84,4.28.62,6.2,1.01.72.15.52,2.36.12,3.25l-6.4.44.18,15.35Z"/>
    <path class="cls-2" d="M601.68,267.89c1.18-.26,1.36,1.88.98,2.91-.45,1.21-1.38.99-2.91,1.08-4.7.3-8.48-1.81-8.46-6.77.02-4.51.92-10.62-.38-14.7-.89-.25-3.49-.11-3.87-.76s-.21-2.71.64-2.77c6.36-.44,1.88-5.29,5.14-6.79.82-.38,3.02-.78,3.03.95s-.28,4,.53,4.84c1.19,1.24,3.45,1,5.4.81.93-.09.97,3.53-.06,3.55-1.44-.2-5.36-.46-5.55.81l-.49,13.14c-.05,1.32.53,2.69,1.36,3.27.98.69,2.3.93,4.62.43Z"/>
    <path class="cls-2" d="M156.85,250.18c-5.25-.91-9.31,2.3-9.35,7.12l-.13,13.94-4.26.14.06-24.64c1.58-.21,2.87-.21,3.44.12.52.3.99,1.12,1.52,2.65,2.04-2.5,4.81-3.61,8.82-3.04.24.95.41,2.16-.08,3.72Z"/>
    <path class="cls-2" d="M255.94,246.55c1.78,5.54-8.92,1.61-9.06,10.11l-.23,14.59-4.38.19.03-23.97c0-.83,2-.99,2.79-.73s1.57.85,2.05,2.73c2.05-2.94,5.68-3.61,8.79-2.92Z"/>
  </g>
  <g>
    <path class="cls-3" d="M375.23,85.83c6.49,52.66-28.86,99.5-79.29,109.2-50.78,9.76-100.67-21.25-114.16-71.57C165.77,63.74,208.03,4.92,269.82.28c51.88-3.89,98.9,32.74,105.41,85.54ZM355.09,133.3c3.48-4.53.69-10.56-3.24-12.63-4.47-2.36-10.01-1.59-12.76,3.07-4.18,7.09-8.51,13.83-14.2,19.81-6.3,6.62-15.35,12.72-19.71,7.79-.97-1.09-1.44-2.82-1.1-4.66.6-3.59,2.68-6.28,5.1-8.82,7-7.33,11.68-15.71,14.33-25.8,15.65-4.59,28.25-14.52,36.09-28.74,2.32-4.2.37-9.02-3.52-10.93-3.56-1.74-8.91-.9-10.93,3.4-3.7,7.88-8.96,14.86-17.88,18.2l-.08-22.29c-.02-5.24-5.57-8.45-9.82-7.89-5.58.74-8.43,4.96-8.03,10.5,1.02,13.87.06,36-7.35,45.29-3.12,3.91-7.92,4.21-11.73,1.07l-10.95-9.03c-2.68-3.52-2.49-8.56-2.16-12.88l1.72-22.44c18.9-11.5,30.17-25.23,33.08-47.97.7-5.42-3.8-9.74-8.64-9.75-4.52-.01-8.44,3.6-8.63,8.75-.47,12.37-6.01,24.16-16.84,30.1-1.76-12.58-5.1-24.45-10.93-35.32-2.27-4.24-7.77-5.47-11.87-4.02-3.39,1.2-7.52,5.63-5.7,9.63l5.94,13.05c6.58,17.58,7.46,36.61,3.7,55.83-15.21-13.54-23.6-30.9-27.95-49.65-1.13-4.86-5.32-7.86-9.93-7.67-3.33.14-8.9,3.55-8.02,8.2,3.34,17.76,11.89,33.61,22.17,48.54-12.3,1.63-21.81-4.77-28.43-13.85-2.99-4.1-9.68-3.94-12.43-.77-3.44,3.96-2.17,8.59,1,12.24,11.88,13.69,28.96,20.72,47.34,18.25,4.47-.6,6.74.61,10.38,3.06l20.26,13.6c6.84,4.59,11.73,11.35,12.67,19.66.74,6.55-3.14,11.21-9.71,11.98-8.44-.47-17.05-1.39-25.16-4.2-5.73-5.95-7.8-13.7-8.21-21.77.07-5.09-3.28-8.5-7.82-8.3-4.26.19-7.51,3.68-6.92,8.41l1.57,12.52c-8.46-4.92-13.96-11.82-19.45-19.23-2.75-3.71-7.12-5.13-11.25-2.36-2.46,1.65-4.85,6.58-2.42,10.16,9.46,13.88,21.93,25.3,37.41,32.42,36.12,16.62,80.54,13.82,107.79-17.29l13.22-17.25Z"/>
    <path class="cls-1" d="M538.8,184.43l-29.7.31-42.69-57.47-42.95-.09v57.27s-25.61.37-25.61.37l-.03-172.79,75.7.15c13.17.03,24.92,3.92,36.02,10.33,10.73,6.64,18.23,16.48,22.29,28.51,8.13,34.31-4.33,62.79-39.36,72.78l46.32,60.64ZM500.42,45.48c-7.82-7.29-18.08-11.66-29.08-11.69l-47.82-.16.15,71.41,46.69-.13c7.38-.02,14.46-1.92,20.81-5,19.75-9.58,22.45-38.07,9.25-54.42Z"/>
    <path class="cls-1" d="M705.61,184.99l-17.34-39.8-88.76.02-17.29,39.5-27.92-.14L631.24,11.89l24.73-.02,42.35,93.65,35.13,78.87-27.84.61ZM679.6,124.42l-35.8-80.07-35.68,80.06h71.48Z"/>
    <path class="cls-1" d="M46.05,146.47c28.95,29.02,74.11,26.55,103.81-3.43l16.01,16.45c-19.12,20.02-44.66,29.84-72.25,29.65-34.88-.24-67.19-18.11-83.43-49.34-13.31-25.58-13.48-56.08-1.08-82.23C30.33,12.82,83.38-3.71,129.11,12.93c12.8,4.66,23.32,12.62,32.89,22.09-5.99,5.14-10.29,9.97-15.91,15.96-17.91-17.85-41.95-25.45-67.01-20.36-27.22,5.53-47.14,27.33-51.69,54.77-3.76,22.7,2.8,45.18,18.66,61.08Z"/>
    <polygon class="cls-1" points="885.31 163.95 885.23 184.65 759.02 184.69 759.01 11.93 784.33 11.9 784.29 163.96 885.31 163.95"/>
    <path class="cls-4" d="M355.09,133.3l-13.22,17.25c-27.25,31.11-71.68,33.92-107.79,17.29-15.48-7.12-27.96-18.54-37.41-32.42-2.43-3.57-.05-8.5,2.42-10.16,4.13-2.77,8.5-1.35,11.25,2.36,5.48,7.41,10.99,14.31,19.45,19.23l-1.57-12.52c-.59-4.73,2.66-8.22,6.92-8.41,4.53-.2,7.89,3.21,7.82,8.3.41,8.08,2.48,15.82,8.21,21.77,8.11,2.81,16.72,3.73,25.16,4.2,6.56-.77,10.44-5.43,9.71-11.98-.94-8.31-5.83-15.07-12.67-19.66l-20.26-13.6c-3.64-2.44-5.91-3.66-10.38-3.06-18.39,2.47-35.46-4.56-47.34-18.25-3.17-3.65-4.43-8.28-1-12.24,2.75-3.17,9.44-3.33,12.43.77,6.63,9.08,16.14,15.47,28.43,13.85-10.28-14.93-18.83-30.78-22.17-48.54-.88-4.65,4.7-8.07,8.02-8.2,4.61-.19,8.8,2.81,9.93,7.67,4.35,18.76,12.73,36.12,27.95,49.65,3.76-19.22,2.87-38.25-3.7-55.83l-5.94-13.05c-1.82-4,2.31-8.43,5.7-9.63,4.1-1.45,9.6-.22,11.87,4.02,5.83,10.87,9.17,22.73,10.93,35.32,10.83-5.94,16.37-17.73,16.84-30.1.2-5.15,4.11-8.76,8.63-8.75,4.84.01,9.33,4.33,8.64,9.75-2.91,22.74-14.19,36.47-33.08,47.97l-1.72,22.44c-.33,4.32-.52,9.36,2.16,12.88l10.95,9.03c3.81,3.15,8.62,2.84,11.73-1.07,7.41-9.29,8.37-31.42,7.35-45.29-.41-5.55,2.44-9.77,8.03-10.5,4.25-.56,9.8,2.65,9.82,7.89l.08,22.29c8.93-3.34,14.18-10.32,17.88-18.2,2.02-4.3,7.37-5.14,10.93-3.4,3.89,1.91,5.84,6.72,3.52,10.93-7.84,14.22-20.44,24.15-36.09,28.74-2.66,10.1-7.33,18.47-14.33,25.8-2.42,2.54-4.5,5.23-5.1,8.82-.34,1.84.13,3.57,1.1,4.66,4.36,4.93,13.41-1.17,19.71-7.79,5.69-5.98,10.03-12.72,14.2-19.81,2.75-4.67,8.29-5.43,12.76-3.07,3.93,2.07,6.72,8.1,3.24,12.63Z"/>
  </g>
</svg>