<?xml version="1.0" encoding="UTF-8"?>
<svg id="_レイヤー_1" data-name="レイヤー 1" xmlns="http://www.w3.org/2000/svg" viewBox="0 0 640.2 140.49">
  <defs>
    <style>
      .cls-1 {
        fill: #192a3a;
      }

      .cls-2 {
        fill: #bc9a6a;
      }
    </style>
  </defs>
  <g>
    <path class="cls-2" d="M9.7,100.72l9.94-.92c11.42-1.06,21.97-3.81,33.18-8.72-11.09-8.21-36.04-22.2-51.26-21.14l.48,6.51c13.04,1.63,24.39,5.62,34.86,13.17-5.99,1.83-11.44,3.12-17.24,3.56l-13.69,1.04c.09.92,1.79,6.64,3.72,6.5Z"/>
    <path class="cls-2" d="M146.45,94.25l-11.09-.91c-6.61-.54-12.86-1.58-19.53-4.11,11.39-6.96,21.78-11.28,34.36-12.71.3-2.2.35-5.07.08-6.94-18.47,1.15-35.58,10.92-50.4,21.53,11.38,5.06,22.67,7.78,34.71,8.78l9.14.76,2.73-6.4Z"/>
    <path class="cls-2" d="M76.13,116.92c-9.56,7.3-17.87,14.23-26.49,21.99-2.43,2.19-6.46.84-8.58-2.32l29.21-23.8-11.9-9.35c-13.9,5.72-27.57,9.76-42.88,9.67l-3.33-5.86,11.58-1.32c16.65-1.9,31.95-8.21,46.01-16.33l-26.42-17.37c-12.49-8.21-25.2-14.02-39.97-15.62l2.13-6.32,21.64,4.83c-3.21-7.79-8.49-14.06-14.28-19.6-.7-1.66,1.71-5.36,3.81-6.05l9.58,10.16c2.75,2.92,10.31,2,14.1,2.46l7.34.89c-4.61-10.91-15.9-12.71-24.23-21.35l4.74-4.68,12.98,9.74c1.1-6.65.02-11.35-1.52-17.64l5.88-3.15c5.08,13.47,1.23,20.33,8.69,34.36l4.79,9.01c4.21-5.75,7.34-9.68,12.14-14.49-8.17-9.61-14.51-20.1-17.26-32.12l6.39-1.75c3.09,11.19,8.03,20.34,15.95,28.17,2.22-2.71,4.07-5.18,5.67-7.62-5.85-6.94-8.86-13.04-10.51-21.45h6.81c1.86,6.16,3.62,10.03,7.76,15.88,2.81-5.4,4.25-9.5,5.92-14.71l6.56,1.44c-2.47,12.13-9.52,22.28-17.69,31.77,4.34,4.43,7.94,8.89,12.59,14.91,2.84-5.46,5.87-11.41,8.49-17.15,1.46-3.2,1.77-19.56,4.83-26.3l5.92,3.2c-1.57,6.41-2.27,11.99-1.83,17.79l13.56-9.84,4.46,4.64c-7.49,8.24-20.64,11.82-23.78,21.13l13.72-.95c2.89-.2,6.87-1.05,8.54-2.97l8.2-9.46c2.02,1.77,3.67,3.64,4.52,5.4-5.9,6.43-10.86,12.45-14.51,20.31,7.55-2.01,13.78-3.68,21.38-4.75l1.96,6.4c-13.83,1.14-25.03,5.84-36.21,13.18l-30.6,20.09c18.73,9.89,37.71,16.31,58.65,17.04l-3.78,6.41c-14.54-.76-28.32-3.88-42.59-9.97l-12.2,9.34,29.39,23.9-6.39,3.76-10.79-9.1-18.15-14.47ZM76.63,69.84l11.49-13.19c-2.19-6.98-6.66-12.05-12.72-17.22-4.15,4.57-7.25,8.54-10.66,13.94-2.27,3.6,8.21,13.84,11.89,16.48ZM96.21,58.93c.3,2.64.29,5.06-1.13,5.73-1.02.48-3.04.66-4.73.79-2.35.18-6.57,8.45-13.77,11.9-6.06-2.4-10.15-6.78-13.73-12.06-2,.76-3.52,1.16-4.67.4-1.69-1.11-3.1-3.77-2.57-5.85.69-2.68-1.43-8.5-4.68-9.14-6.43-1.27-13.14-2.02-19.43-2.76l4.63,11.69c13.39,8.35,26.67,16.77,39.65,26.55l40.56-26.66,4.67-11.5-17.7,2.14c-3.1.37-7.48,5.31-7.09,8.78ZM80.22,105.82l7.04-6.13-11.22-5.55-11.09,5.67,6.32,5.38c3.08,2.62,5.31,3.8,8.94.63Z"/>
    <path class="cls-2" d="M146.45,94.25l-2.73,6.4-9.14-.76c-12.04-1-23.33-3.72-34.71-8.78,14.82-10.61,31.93-20.38,50.4-21.53.27,1.87.22,4.74-.08,6.94-12.58,1.43-22.97,5.75-34.36,12.71,6.67,2.53,12.92,3.57,19.53,4.11l11.09.91Z"/>
    <path class="cls-2" d="M9.7,100.72c-1.93.14-3.64-5.59-3.72-6.5l13.69-1.04c5.8-.44,11.25-1.73,17.24-3.56-10.47-7.55-21.82-11.54-34.86-13.17l-.48-6.51c15.21-1.06,40.16,12.93,51.26,21.14-11.21,4.92-21.76,7.67-33.18,8.72l-9.94.92Z"/>
  </g>
  <g>
    <path class="cls-1" d="M195.22,64.55v-16.92h-15.77v16.92h-9.77V24.08h9.77v15.32h15.77v-15.32h9.77v40.46h-9.77Z"/>
    <path class="cls-1" d="M261.23,44.14c0,3.2-.55,6.13-1.66,8.77-1.11,2.65-2.64,4.91-4.6,6.8-1.96,1.89-4.3,3.34-7,4.37-2.71,1.03-5.64,1.54-8.8,1.54s-6.09-.51-8.77-1.54c-2.69-1.03-5.01-2.49-6.97-4.37-1.96-1.89-3.5-4.15-4.6-6.8-1.11-2.65-1.66-5.57-1.66-8.77s.55-6.16,1.66-8.77c1.1-2.61,2.64-4.83,4.6-6.66,1.96-1.83,4.29-3.24,6.97-4.23,2.69-.99,5.61-1.49,8.77-1.49s6.09.49,8.8,1.49c2.7.99,5.04,2.4,7,4.23,1.96,1.83,3.49,4.05,4.6,6.66,1.1,2.61,1.66,5.54,1.66,8.77ZM250.77,44.14c0-1.75-.29-3.39-.86-4.91s-1.36-2.83-2.37-3.92c-1.01-1.09-2.23-1.94-3.66-2.57-1.43-.63-3-.94-4.71-.94s-3.28.32-4.69.94c-1.41.63-2.63,1.49-3.66,2.57-1.03,1.09-1.82,2.39-2.37,3.92-.55,1.52-.83,3.16-.83,4.91s.29,3.51.86,5.06c.57,1.54,1.36,2.87,2.37,3.97,1.01,1.11,2.22,1.97,3.63,2.6,1.41.63,2.97.94,4.69.94s3.28-.31,4.69-.94c1.41-.63,2.63-1.5,3.66-2.6s1.83-2.43,2.4-3.97c.57-1.54.86-3.23.86-5.06Z"/>
    <path class="cls-1" d="M289,32.43v32.12h-9.77v-32.12h-11.43v-8.34h32.63v8.34h-11.43Z"/>
    <path class="cls-1" d="M310.6,64.55V24.08h27.2v8.23h-17.77v7.66h16.8v7.83h-16.8v8.4h18.8v8.34h-28.23Z"/>
    <path class="cls-1" d="M351,64.55V24.08h9.83v31.95h15.66v8.52h-25.49Z"/>
    <path class="cls-1" d="M436.1,36.54c0,2.36-.44,4.35-1.31,5.97-.88,1.62-2.06,2.92-3.54,3.92s-3.2,1.71-5.14,2.17c-1.94.46-3.96.69-6.06.69h-4.86v15.26h-9.77V24.08h14.86c2.21,0,4.28.22,6.2.66,1.92.44,3.6,1.14,5.03,2.11,1.43.97,2.55,2.25,3.37,3.83.82,1.58,1.23,3.53,1.23,5.86ZM426.33,36.6c0-.95-.19-1.73-.57-2.34-.38-.61-.9-1.09-1.54-1.43-.65-.34-1.38-.57-2.2-.69-.82-.12-1.67-.17-2.54-.17h-4.29v9.54h4.11c.91,0,1.79-.08,2.63-.23.84-.15,1.59-.42,2.26-.8.67-.38,1.19-.89,1.57-1.51.38-.63.57-1.42.57-2.37Z"/>
    <path class="cls-1" d="M471.7,64.55l-3.14-7.94h-15.66l-2.97,7.94h-10.63l16.97-40.46h9.49l16.8,40.46h-10.86ZM460.84,34.88l-5.14,13.89h10.17l-5.03-13.89Z"/>
    <path class="cls-1" d="M505.53,32.43v32.12h-9.77v-32.12h-11.43v-8.34h32.63v8.34h-11.43Z"/>
    <path class="cls-1" d="M527.14,64.55V24.08h9.83v40.46h-9.83Z"/>
    <path class="cls-1" d="M576.74,64.55l-16.29-26.46h-.17l.23,26.46h-9.49V24.08h11.14l16.23,26.4h.17l-.23-26.4h9.49v40.46h-11.09Z"/>
    <path class="cls-1" d="M629.32,64.55l-3.14-7.94h-15.66l-2.97,7.94h-10.63l16.97-40.46h9.49l16.8,40.46h-10.86ZM618.46,34.88l-5.14,13.89h10.17l-5.03-13.89Z"/>
  </g>
  <g>
    <path class="cls-1" d="M169.67,120.42v-40.46h9.83v40.46h-9.83Z"/>
    <path class="cls-1" d="M214.93,90.48c-.84-1.07-1.93-1.91-3.29-2.54-1.35-.63-2.66-.94-3.91-.94-.65,0-1.31.06-1.97.17-.67.12-1.27.33-1.8.66-.53.32-.98.74-1.34,1.26-.36.51-.54,1.17-.54,1.97,0,.69.14,1.26.43,1.71.29.46.7.86,1.26,1.2.55.34,1.21.66,1.97.94.76.29,1.62.58,2.57.89,1.37.46,2.8.96,4.29,1.51s2.84,1.28,4.06,2.2c1.22.91,2.23,2.05,3.03,3.4.8,1.35,1.2,3.04,1.2,5.06,0,2.32-.43,4.33-1.29,6.03-.86,1.7-2.01,3.1-3.46,4.2-1.45,1.11-3.11,1.92-4.97,2.46-1.87.53-3.79.8-5.77.8-2.9,0-5.7-.5-8.4-1.51-2.71-1.01-4.95-2.45-6.74-4.31l6.4-6.51c.99,1.22,2.29,2.24,3.91,3.06,1.62.82,3.23,1.23,4.83,1.23.72,0,1.43-.08,2.11-.23s1.29-.4,1.8-.74c.51-.34.92-.8,1.23-1.37.3-.57.46-1.26.46-2.06s-.19-1.41-.57-1.94c-.38-.53-.92-1.02-1.63-1.46-.71-.44-1.58-.84-2.63-1.2-1.05-.36-2.24-.75-3.57-1.17-1.3-.42-2.56-.91-3.8-1.49-1.24-.57-2.34-1.3-3.31-2.2s-1.75-1.98-2.34-3.26c-.59-1.28-.89-2.83-.89-4.66,0-2.25.46-4.17,1.37-5.77.91-1.6,2.11-2.91,3.6-3.94,1.49-1.03,3.16-1.78,5.03-2.26,1.87-.48,3.75-.71,5.66-.71,2.29,0,4.62.42,7,1.26,2.38.84,4.47,2.08,6.26,3.71l-6.23,6.57Z"/>
    <path class="cls-1" d="M258.6,120.42v-16.92h-15.77v16.92h-9.77v-40.46h9.77v15.32h15.77v-15.32h9.77v40.46h-9.77Z"/>
    <path class="cls-1" d="M282.43,120.42v-40.46h9.83v40.46h-9.83Z"/>
    <path class="cls-1" d="M335.32,120.48c-2.65.65-5.53.97-8.66.97s-6.22-.51-8.94-1.54c-2.72-1.03-5.07-2.48-7.03-4.34-1.96-1.87-3.5-4.11-4.6-6.71-1.11-2.61-1.66-5.52-1.66-8.71s.56-6.17,1.69-8.8c1.12-2.63,2.68-4.87,4.66-6.71,1.98-1.85,4.3-3.27,6.97-4.26,2.67-.99,5.54-1.49,8.63-1.49s6.17.49,8.92,1.46c2.74.97,4.97,2.28,6.69,3.91l-6.17,7.03c-.95-1.1-2.21-2.01-3.77-2.71-1.56-.7-3.33-1.06-5.31-1.06-1.71,0-3.3.31-4.74.94-1.45.63-2.71,1.51-3.77,2.63-1.07,1.12-1.9,2.46-2.49,4-.59,1.54-.89,3.23-.89,5.06s.27,3.58.8,5.14c.53,1.56,1.32,2.91,2.37,4.03,1.05,1.12,2.34,2,3.89,2.63,1.54.63,3.31.94,5.29.94,1.14,0,2.23-.09,3.26-.26s1.98-.45,2.86-.83v-7.37h-7.71v-7.89h16.69v21.43c-1.98,1.03-4.3,1.87-6.94,2.51Z"/>
    <path class="cls-1" d="M383.41,120.42l-3.14-7.94h-15.66l-2.97,7.94h-10.63l16.97-40.46h9.49l16.8,40.46h-10.86ZM372.55,90.76l-5.14,13.89h10.17l-5.03-13.89Z"/>
    <path class="cls-1" d="M428.04,120.42l-15.03-18.63h-.11v18.63h-9.54v-40.46h9.54v16.46h.17l14.46-16.46h12.23l-17.43,18.63,18.46,21.83h-12.74Z"/>
    <path class="cls-1" d="M449.7,120.42v-40.46h9.83v40.46h-9.83Z"/>
    <path class="cls-1" d="M495.16,111.62c-.36,1.75-1.03,3.36-2,4.83-.97,1.47-2.32,2.68-4.06,3.63-1.73.95-3.97,1.43-6.72,1.43-3.43,0-6.29-.89-8.57-2.66-2.29-1.77-3.81-4.05-4.57-6.83l8.63-2.91c.27,1.07.75,1.92,1.46,2.57.7.65,1.57.97,2.6.97,1.6,0,2.66-.55,3.17-1.66.51-1.11.77-2.55.77-4.34v-26.69h9.83v26.63c0,1.6-.18,3.28-.54,5.03Z"/>
    <path class="cls-1" d="M509.53,120.42v-40.46h9.83v40.46h-9.83Z"/>
    <path class="cls-1" d="M570.11,120.42l.23-28.63h-.17l-10.52,28.63h-6.86l-10.23-28.63h-.17l.23,28.63h-9.2v-40.46h13.9l9.21,25.95h.23l8.81-25.95h14.13v40.46h-9.6Z"/>
    <path class="cls-1" d="M621.14,120.42l-3.14-7.94h-15.66l-2.97,7.94h-10.63l16.97-40.46h9.49l16.8,40.46h-10.86ZM610.28,90.76l-5.14,13.89h10.17l-5.03-13.89Z"/>
  </g>
</svg>