<?xml version="1.0" encoding="UTF-8"?>
<svg id="_レイヤー_1" data-name="レイヤー 1" xmlns="http://www.w3.org/2000/svg" viewBox="0 0 213.09 213.09">
  <defs>
    <style>
      .cls-1 {
        fill: #192a3a;
      }

      .cls-2 {
        fill: #bc9a6a;
      }
    </style>
  </defs>
  <rect class="cls-1" width="213.09" height="213.09" rx="38.88" ry="38.88"/>
  <g>
    <path class="cls-2" d="M36.46,138.76l10.5-.97c12.07-1.12,23.23-4.02,35.07-9.22-11.73-8.68-38.09-23.47-54.17-22.34l.51,6.88c13.78,1.73,25.78,5.94,36.85,13.92-6.33,1.93-12.09,3.29-18.22,3.76l-14.47,1.1c.09.97,1.89,7.02,3.94,6.87Z"/>
    <path class="cls-2" d="M181,131.92l-11.73-.96c-6.98-.57-13.59-1.66-20.64-4.34,12.04-7.35,23.03-11.92,36.32-13.43.32-2.33.37-5.36.09-7.34-19.52,1.21-37.6,11.55-53.27,22.76,12.03,5.34,23.96,8.23,36.69,9.28l9.66.8,2.89-6.76Z"/>
    <path class="cls-2" d="M106.67,155.88c-10.1,7.72-18.88,15.04-28,23.24-2.57,2.32-6.82.89-9.07-2.45l30.87-25.16-12.58-9.88c-14.69,6.04-29.14,10.32-45.32,10.22l-3.52-6.19,12.24-1.4c17.6-2.01,33.76-8.67,48.63-17.26l-27.92-18.36c-13.2-8.68-26.64-14.82-42.25-16.51l2.25-6.68,22.87,5.11c-3.4-8.23-8.98-14.86-15.1-20.72-.74-1.76,1.81-5.66,4.03-6.39l10.12,10.73c2.91,3.09,10.9,2.12,14.91,2.6l7.76.94c-4.88-11.53-16.8-13.43-25.61-22.57l5.01-4.95,13.72,10.29c1.17-7.03.02-12-1.61-18.64l6.21-3.33c5.37,14.24,1.3,21.49,9.18,36.32l5.06,9.52c4.45-6.08,7.76-10.23,12.83-15.32-8.63-10.15-15.34-21.25-18.24-33.95l6.76-1.85c3.26,11.83,8.48,21.49,16.86,29.78,2.35-2.87,4.3-5.48,5.99-8.06-6.18-7.33-9.36-13.79-11.1-22.67h7.19c1.97,6.51,3.83,10.6,8.21,16.79,2.96-5.71,4.5-10.04,6.26-15.55l6.93,1.52c-2.61,12.83-10.06,23.55-18.7,33.58,4.58,4.68,8.4,9.39,13.3,15.76,3-5.77,6.2-12.06,8.97-18.12,1.54-3.38,1.87-20.68,5.1-27.8l6.25,3.38c-1.66,6.77-2.4,12.68-1.93,18.81l14.34-10.4,4.72,4.91c-7.92,8.7-21.82,12.49-25.14,22.34l14.51-1c3.06-.21,7.27-1.11,9.02-3.14l8.66-10c2.14,1.87,3.88,3.85,4.77,5.7-6.24,6.8-11.48,13.16-15.33,21.47,7.98-2.13,14.56-3.89,22.6-5.02l2.08,6.76c-14.61,1.2-26.45,6.17-38.27,13.93l-32.35,21.23c19.8,10.46,39.86,17.24,61.99,18.01l-4,6.78c-15.37-.8-29.93-4.1-45.01-10.54l-12.9,9.88,31.06,25.26-6.75,3.97-11.41-9.62-19.18-15.3ZM107.2,106.12l12.15-13.94c-2.31-7.38-7.04-12.74-13.44-18.2-4.39,4.83-7.67,9.02-11.27,14.73-2.4,3.8,8.67,14.63,12.56,17.41ZM127.9,94.59c.32,2.79.31,5.34-1.2,6.05-1.07.51-3.22.7-5,.83-2.48.19-6.94,8.93-14.55,12.57-6.41-2.54-10.72-7.16-14.52-12.75-2.12.81-3.72,1.22-4.94.43-1.78-1.17-3.28-3.99-2.72-6.19.72-2.83-1.51-8.98-4.95-9.66-6.79-1.34-13.88-2.14-20.53-2.92l4.89,12.36c14.15,8.82,28.19,17.73,41.91,28.07l42.87-28.18,4.94-12.15-18.71,2.26c-3.28.4-7.91,5.62-7.49,9.28ZM110.99,144.15l7.44-6.48-11.86-5.87-11.72,5.99,6.68,5.69c3.26,2.77,5.61,4.02,9.45.67Z"/>
    <path class="cls-2" d="M181,131.92l-2.89,6.76-9.66-.8c-12.72-1.05-24.66-3.93-36.69-9.28,15.67-11.21,33.75-21.54,53.27-22.76.28,1.98.23,5.01-.09,7.34-13.3,1.51-24.28,6.08-36.32,13.43,7.05,2.68,13.66,3.77,20.64,4.34l11.73.96Z"/>
    <path class="cls-2" d="M36.46,138.76c-2.05.14-3.85-5.9-3.94-6.87l14.47-1.1c6.13-.47,11.9-1.83,18.22-3.76-11.07-7.98-23.06-12.2-36.85-13.92l-.51-6.88c16.08-1.12,42.45,13.66,54.17,22.34-11.85,5.2-23,8.1-35.07,9.22l-10.5.97Z"/>
  </g>
</svg>