<?xml version="1.0" encoding="UTF-8"?>
<svg id="_レイヤー_1" data-name="レイヤー 1" xmlns="http://www.w3.org/2000/svg" viewBox="0 0 444.49 352.64">
  <defs>
    <style>
      .cls-1 {
        fill: #192a3a;
      }

      .cls-2 {
        fill: #bc9a6a;
      }
    </style>
  </defs>
  <g>
    <path class="cls-2" d="M126.58,166.14l14.29-1.32c16.42-1.52,31.6-5.47,47.71-12.54-15.95-11.81-51.83-31.92-73.7-30.4l.69,9.36c18.75,2.35,35.07,8.08,50.13,18.94-8.61,2.63-16.45,4.48-24.79,5.11l-19.68,1.49c.12,1.32,2.57,9.55,5.36,9.35Z"/>
    <path class="cls-2" d="M323.23,156.83l-15.95-1.31c-9.5-.78-18.49-2.27-28.08-5.91,16.38-10,31.33-16.22,49.41-18.28.43-3.17.5-7.29.12-9.98-26.56,1.65-51.16,15.71-72.47,30.96,16.36,7.27,32.6,11.19,49.91,12.62l13.14,1.09,3.93-9.2Z"/>
    <path class="cls-2" d="M222.1,189.42c-13.74,10.5-25.69,20.46-38.1,31.62-3.5,3.15-9.28,1.21-12.34-3.33l42-34.22-17.11-13.44c-19.99,8.22-39.64,14.04-61.66,13.9l-4.79-8.43,16.65-1.9c23.95-2.73,45.94-11.8,66.16-23.48l-37.99-24.98c-17.95-11.8-36.24-20.16-57.48-22.46l3.06-9.09,31.12,6.95c-4.62-11.2-12.21-20.22-20.54-28.19-1.01-2.39,2.46-7.7,5.49-8.7l13.77,14.6c3.96,4.2,14.83,2.88,20.28,3.54l10.55,1.28c-6.63-15.69-22.86-18.27-34.84-30.7l6.82-6.73,18.67,14c1.59-9.56.03-16.32-2.19-25.36l8.45-4.53c7.3,19.37,1.77,29.24,12.49,49.41l6.88,12.96c6.06-8.27,10.56-13.92,17.46-20.84-11.74-13.81-20.87-28.91-24.81-46.18l9.19-2.52c4.44,16.09,11.54,29.24,22.93,40.51,3.2-3.9,5.85-7.45,8.15-10.96-8.41-9.98-12.74-18.76-15.11-30.84h9.79c2.68,8.85,5.21,14.42,11.16,22.84,4.03-7.77,6.12-13.65,8.51-21.15l9.43,2.07c-3.55,17.45-13.69,32.04-25.44,45.69,6.24,6.37,11.42,12.78,18.1,21.44,4.08-7.85,8.44-16.41,12.21-24.66,2.1-4.6,2.55-28.13,6.94-37.82l8.51,4.6c-2.26,9.21-3.27,17.25-2.63,25.59l19.5-14.15,6.42,6.68c-10.77,11.84-29.68,16.99-34.2,30.39l19.73-1.36c4.16-.29,9.89-1.51,12.28-4.27l11.79-13.6c2.91,2.54,5.27,5.23,6.49,7.76-8.49,9.25-15.62,17.91-20.86,29.21,10.85-2.9,19.81-5.29,30.74-6.83l2.82,9.2c-19.88,1.63-35.99,8.4-52.07,18.95l-44.01,28.88c26.93,14.23,54.23,23.45,84.34,24.5l-5.44,9.22c-20.91-1.09-40.73-5.57-61.24-14.34l-17.55,13.44,42.26,34.37-9.19,5.4-15.52-13.09-26.09-20.81ZM222.82,121.72l16.52-18.97c-3.14-10.04-9.58-17.33-18.29-24.77-5.97,6.57-10.43,12.28-15.33,20.04-3.26,5.17,11.8,19.9,17.09,23.69ZM250.98,106.04c.43,3.8.42,7.27-1.63,8.24-1.46.69-4.38.95-6.8,1.13-3.37.26-9.45,12.14-19.8,17.11-8.72-3.45-14.59-9.75-19.75-17.35-2.88,1.1-5.06,1.67-6.72.58-2.43-1.59-4.46-5.43-3.69-8.42.99-3.86-2.05-12.22-6.74-13.14-9.24-1.82-18.89-2.91-27.94-3.98l6.66,16.81c19.25,12.01,38.35,24.12,57.02,38.18l58.32-38.34,6.72-16.53-25.46,3.07c-4.46.54-10.76,7.64-10.19,12.63ZM227.98,173.46l10.12-8.82-16.13-7.98-15.94,8.15,9.09,7.74c4.43,3.77,7.63,5.47,12.86.91Z"/>
    <path class="cls-2" d="M323.23,156.83l-3.93,9.2-13.14-1.09c-17.31-1.43-33.55-5.35-49.91-12.62,21.32-15.26,45.91-29.31,72.47-30.96.38,2.69.32,6.81-.12,9.98-18.09,2.06-33.03,8.27-49.41,18.28,9.59,3.64,18.59,5.13,28.08,5.91l15.95,1.31Z"/>
    <path class="cls-2" d="M126.58,166.14c-2.78.2-5.23-8.03-5.36-9.35l19.68-1.49c8.34-.63,16.18-2.49,24.79-5.11-15.06-10.86-31.38-16.59-50.13-18.94l-.69-9.36c21.88-1.53,57.75,18.59,73.7,30.4-16.12,7.07-31.29,11.02-47.71,12.54l-14.29,1.32Z"/>
  </g>
  <g>
    <path class="cls-1" d="M41.21,283.26v-14.58h-13.59v14.58h-8.42v-34.87h8.42v13.2h13.59v-13.2h8.42v34.87h-8.42Z"/>
    <path class="cls-1" d="M98.09,265.68c0,2.76-.48,5.28-1.43,7.56-.95,2.28-2.27,4.24-3.96,5.86-1.69,1.63-3.7,2.88-6.03,3.77-2.33.89-4.86,1.33-7.58,1.33s-5.25-.44-7.56-1.33c-2.31-.89-4.32-2.14-6.01-3.77-1.69-1.62-3.01-3.58-3.96-5.86-.95-2.28-1.43-4.8-1.43-7.56s.48-5.31,1.43-7.56c.95-2.25,2.27-4.16,3.96-5.74,1.69-1.58,3.69-2.79,6.01-3.64,2.32-.85,4.83-1.28,7.56-1.28s5.25.43,7.58,1.28c2.33.85,4.34,2.07,6.03,3.64,1.69,1.58,3.01,3.49,3.96,5.74.95,2.25,1.43,4.77,1.43,7.56ZM89.08,265.68c0-1.51-.25-2.92-.74-4.23s-1.17-2.44-2.04-3.37c-.87-.94-1.92-1.67-3.15-2.22-1.23-.54-2.59-.81-4.06-.81s-2.82.27-4.04.81c-1.22.54-2.27,1.28-3.15,2.22-.89.94-1.57,2.06-2.04,3.37-.48,1.31-.71,2.73-.71,4.23s.25,3.03.74,4.36c.49,1.33,1.17,2.47,2.04,3.42.87.95,1.91,1.7,3.13,2.24,1.21.54,2.56.81,4.04.81s2.82-.27,4.04-.81c1.21-.54,2.27-1.29,3.15-2.24s1.58-2.09,2.07-3.42c.49-1.33.74-2.78.74-4.36Z"/>
    <path class="cls-1" d="M122.02,255.58v27.68h-8.42v-27.68h-9.85v-7.19h28.12v7.19h-9.85Z"/>
    <path class="cls-1" d="M140.64,283.26v-34.87h23.44v7.09h-15.32v6.6h14.48v6.75h-14.48v7.24h16.2v7.19h-24.33Z"/>
    <path class="cls-1" d="M175.46,283.26v-34.87h8.47v27.53h13.49v7.34h-21.97Z"/>
    <path class="cls-1" d="M248.79,259.13c0,2.04-.38,3.75-1.13,5.15-.76,1.4-1.77,2.52-3.05,3.37s-2.76,1.48-4.43,1.87c-1.67.39-3.42.59-5.22.59h-4.19v13.15h-8.42v-34.87h12.8c1.9,0,3.69.19,5.34.57,1.66.38,3.1.99,4.33,1.82,1.23.84,2.2,1.94,2.91,3.3.71,1.36,1.06,3.05,1.06,5.05ZM240.37,259.18c0-.82-.16-1.49-.49-2.02-.33-.52-.77-.94-1.33-1.23-.56-.3-1.19-.49-1.9-.59-.71-.1-1.44-.15-2.19-.15h-3.69v8.23h3.55c.79,0,1.54-.07,2.27-.2.72-.13,1.37-.36,1.95-.69.57-.33,1.03-.76,1.35-1.31.33-.54.49-1.22.49-2.04Z"/>
    <path class="cls-1" d="M279.48,283.26l-2.71-6.85h-13.49l-2.56,6.85h-9.16l14.63-34.87h8.18l14.48,34.87h-9.36ZM270.12,257.7l-4.43,11.97h8.77l-4.33-11.97Z"/>
    <path class="cls-1" d="M308.63,255.58v27.68h-8.42v-27.68h-9.85v-7.19h28.12v7.19h-9.85Z"/>
    <path class="cls-1" d="M327.25,283.26v-34.87h8.47v34.87h-8.47Z"/>
    <path class="cls-1" d="M370,283.26l-14.04-22.8h-.15l.2,22.8h-8.18v-34.87h9.6l13.99,22.75h.15l-.2-22.75h8.18v34.87h-9.55Z"/>
    <path class="cls-1" d="M415.31,283.26l-2.71-6.85h-13.49l-2.56,6.85h-9.16l14.63-34.87h8.18l14.48,34.87h-9.36ZM405.95,257.7l-4.43,11.97h8.77l-4.33-11.97Z"/>
  </g>
  <g>
    <path class="cls-1" d="M67.88,322.83v-26.96h6.55v26.96h-6.55Z"/>
    <path class="cls-1" d="M98.04,302.88c-.56-.71-1.29-1.28-2.19-1.69-.9-.42-1.77-.63-2.61-.63-.43,0-.87.04-1.31.11-.44.08-.84.22-1.2.44-.36.22-.65.5-.9.84-.24.34-.36.78-.36,1.31,0,.46.1.84.29,1.14.19.3.47.57.84.8.37.23.81.44,1.31.63.51.19,1.08.39,1.71.59.91.3,1.87.64,2.86,1.01s1.89.86,2.7,1.47c.81.61,1.49,1.36,2.02,2.27.53.9.8,2.03.8,3.37,0,1.55-.29,2.89-.86,4.02-.57,1.13-1.34,2.06-2.3,2.8-.97.74-2.07,1.28-3.31,1.64-1.24.36-2.53.53-3.85.53-1.93,0-3.8-.34-5.6-1.01-1.8-.67-3.3-1.63-4.49-2.88l4.27-4.34c.66.81,1.53,1.49,2.61,2.04,1.08.55,2.15.82,3.22.82.48,0,.95-.05,1.41-.15s.86-.27,1.2-.5c.34-.23.62-.53.82-.91.2-.38.3-.84.3-1.37s-.13-.94-.38-1.3c-.25-.36-.62-.68-1.09-.97-.47-.29-1.05-.56-1.75-.8-.7-.24-1.49-.5-2.38-.78-.86-.28-1.71-.61-2.53-.99-.83-.38-1.56-.87-2.21-1.47s-1.17-1.32-1.56-2.17c-.39-.85-.59-1.89-.59-3.1,0-1.5.3-2.78.91-3.85.61-1.07,1.41-1.94,2.4-2.63.99-.69,2.11-1.19,3.35-1.5,1.24-.32,2.5-.48,3.77-.48,1.52,0,3.08.28,4.67.84,1.59.56,2.98,1.38,4.17,2.48l-4.15,4.38Z"/>
    <path class="cls-1" d="M127.14,322.83v-11.27h-10.51v11.27h-6.51v-26.96h6.51v10.21h10.51v-10.21h6.51v26.96h-6.51Z"/>
    <path class="cls-1" d="M143.02,322.83v-26.96h6.55v26.96h-6.55Z"/>
    <path class="cls-1" d="M178.27,322.87c-1.76.43-3.69.65-5.77.65s-4.15-.34-5.96-1.03c-1.82-.69-3.38-1.65-4.68-2.89-1.31-1.24-2.33-2.74-3.07-4.47-.74-1.74-1.1-3.68-1.1-5.81s.37-4.11,1.12-5.87c.75-1.75,1.78-3.24,3.1-4.47,1.32-1.23,2.87-2.18,4.65-2.84,1.78-.66,3.69-.99,5.75-.99s4.11.32,5.94.97c1.83.65,3.31,1.52,4.46,2.61l-4.11,4.68c-.63-.74-1.47-1.34-2.51-1.81-1.04-.47-2.22-.7-3.54-.7-1.14,0-2.2.21-3.16.63-.97.42-1.8,1-2.51,1.75-.71.75-1.26,1.64-1.66,2.67-.39,1.03-.59,2.15-.59,3.37s.18,2.39.53,3.43c.35,1.04.88,1.94,1.58,2.68.7.75,1.56,1.33,2.59,1.75,1.03.42,2.2.63,3.52.63.76,0,1.49-.06,2.17-.17s1.32-.3,1.9-.55v-4.91h-5.14v-5.26h11.12v14.28c-1.32.69-2.86,1.24-4.63,1.68Z"/>
    <path class="cls-1" d="M210.31,322.83l-2.09-5.29h-10.44l-1.98,5.29h-7.08l11.31-26.96h6.32l11.2,26.96h-7.24ZM203.08,303.07l-3.43,9.25h6.78l-3.35-9.25Z"/>
    <path class="cls-1" d="M240.06,322.83l-10.02-12.42h-.08v12.42h-6.36v-26.96h6.36v10.97h.11l9.64-10.97h8.15l-11.62,12.42,12.3,14.55h-8.49Z"/>
    <path class="cls-1" d="M254.49,322.83v-26.96h6.55v26.96h-6.55Z"/>
    <path class="cls-1" d="M284.79,316.97c-.24,1.17-.69,2.24-1.33,3.22-.65.98-1.55,1.78-2.7,2.42-1.16.63-2.65.95-4.47.95-2.28,0-4.19-.59-5.71-1.77-1.52-1.18-2.54-2.7-3.05-4.55l5.75-1.94c.18.71.5,1.28.97,1.71.47.43,1.05.65,1.73.65,1.07,0,1.77-.37,2.11-1.1.34-.74.51-1.7.51-2.89v-17.79h6.55v17.75c0,1.07-.12,2.18-.36,3.35Z"/>
    <path class="cls-1" d="M294.36,322.83v-26.96h6.55v26.96h-6.55Z"/>
    <path class="cls-1" d="M334.73,322.83l.15-19.08h-.11l-7.01,19.08h-4.57l-6.82-19.08h-.11l.15,19.08h-6.13v-26.96h9.27l6.14,17.29h.15l5.87-17.29h9.42v26.96h-6.4Z"/>
    <path class="cls-1" d="M368.74,322.83l-2.09-5.29h-10.44l-1.98,5.29h-7.08l11.31-26.96h6.32l11.2,26.96h-7.24ZM361.51,303.07l-3.43,9.25h6.78l-3.35-9.25Z"/>
  </g>
</svg>